<mxfile host="65bd71144e">
    <diagram name="ページ1" id="d89eBESRnrm5665L_XqI">
        <mxGraphModel dx="1359" dy="921" grid="1" gridSize="10" guides="1" tooltips="1" connect="1" arrows="1" fold="1" page="1" pageScale="1" pageWidth="827" pageHeight="1169" math="0" shadow="0">
            <root>
                <mxCell id="0"/>
                <mxCell id="1" parent="0"/>
                <mxCell id="bu0Hg3FqPW36yZZ3gOAO-1" value="ユーザーは種目名と対応部位を登録できる" style="rounded=0;whiteSpace=wrap;html=1;" parent="1" vertex="1">
                    <mxGeometry x="260" y="550" width="120" height="60" as="geometry"/>
                </mxCell>
                <mxCell id="bu0Hg3FqPW36yZZ3gOAO-4" value="ユーザーは筋トレを記録できる" style="ellipse;whiteSpace=wrap;html=1;" parent="1" vertex="1">
                    <mxGeometry x="260" y="320" width="120" height="80" as="geometry"/>
                </mxCell>
                <mxCell id="bu0Hg3FqPW36yZZ3gOAO-5" value="ユーザーは筋トレ記録を管理できる" style="ellipse;whiteSpace=wrap;html=1;" parent="1" vertex="1">
                    <mxGeometry x="1020" y="320" width="120" height="80" as="geometry"/>
                </mxCell>
                <mxCell id="bu0Hg3FqPW36yZZ3gOAO-9" value="ユーザーは筋トレを記録できる" style="rounded=1;whiteSpace=wrap;html=1;" parent="1" vertex="1">
                    <mxGeometry x="414" y="430" width="126" height="60" as="geometry"/>
                </mxCell>
                <mxCell id="bu0Hg3FqPW36yZZ3gOAO-12" value="ユーザーは種目を登録できる" style="rounded=1;whiteSpace=wrap;html=1;" parent="1" vertex="1">
                    <mxGeometry x="260" y="430" width="120" height="60" as="geometry"/>
                </mxCell>
                <mxCell id="bu0Hg3FqPW36yZZ3gOAO-13" value="ユーザーは登録した種目を記録できる" style="rounded=0;whiteSpace=wrap;html=1;" parent="1" vertex="1">
                    <mxGeometry x="414" y="550" width="120" height="60" as="geometry"/>
                </mxCell>
                <mxCell id="bu0Hg3FqPW36yZZ3gOAO-14" value="ユーザーは追加した種目に重量と回数xセットを記録できる" style="rounded=0;whiteSpace=wrap;html=1;" parent="1" vertex="1">
                    <mxGeometry x="414" y="630" width="120" height="60" as="geometry"/>
                </mxCell>
                <mxCell id="bu0Hg3FqPW36yZZ3gOAO-16" value="ユーザーは筋トレ記録を更新できる" style="rounded=1;whiteSpace=wrap;html=1;" parent="1" vertex="1">
                    <mxGeometry x="1170" y="430" width="120" height="60" as="geometry"/>
                </mxCell>
                <mxCell id="bu0Hg3FqPW36yZZ3gOAO-17" value="ユーザーは筋トレ記録を削除できる" style="rounded=1;whiteSpace=wrap;html=1;" parent="1" vertex="1">
                    <mxGeometry x="1320" y="430" width="120" height="60" as="geometry"/>
                </mxCell>
                <mxCell id="bu0Hg3FqPW36yZZ3gOAO-18" value="" style="endArrow=none;html=1;rounded=0;" parent="1" edge="1">
                    <mxGeometry width="50" height="50" relative="1" as="geometry">
                        <mxPoint x="180" y="520" as="sourcePoint"/>
                        <mxPoint x="1410" y="520" as="targetPoint"/>
                    </mxGeometry>
                </mxCell>
                <mxCell id="bu0Hg3FqPW36yZZ3gOAO-19" value="ユーザーは日付と種目を指定して、重量と回数xセットを更新できる" style="rounded=0;whiteSpace=wrap;html=1;" parent="1" vertex="1">
                    <mxGeometry x="1170" y="550" width="120" height="60" as="geometry"/>
                </mxCell>
                <mxCell id="bu0Hg3FqPW36yZZ3gOAO-20" value="ユーザーは日付と種目を指定して、重量と回数xセットを削除できる" style="rounded=0;whiteSpace=wrap;html=1;" parent="1" vertex="1">
                    <mxGeometry x="1320" y="550" width="120" height="60" as="geometry"/>
                </mxCell>
                <mxCell id="bu0Hg3FqPW36yZZ3gOAO-21" value="ユーザーは筋トレ記録を確認できる" style="rounded=1;whiteSpace=wrap;html=1;" parent="1" vertex="1">
                    <mxGeometry x="1020" y="430" width="120" height="60" as="geometry"/>
                </mxCell>
                <mxCell id="bu0Hg3FqPW36yZZ3gOAO-22" value="ユーザーは日付を指定して、各筋トレ種目を確認できる" style="rounded=0;whiteSpace=wrap;html=1;" parent="1" vertex="1">
                    <mxGeometry x="1020" y="550" width="120" height="60" as="geometry"/>
                </mxCell>
                <mxCell id="bu0Hg3FqPW36yZZ3gOAO-23" value="ユーザーは各筋トレ種目の重量と回数xセットを確認できる" style="rounded=0;whiteSpace=wrap;html=1;" parent="1" vertex="1">
                    <mxGeometry x="1020" y="630" width="120" height="60" as="geometry"/>
                </mxCell>
                <mxCell id="bu0Hg3FqPW36yZZ3gOAO-24" value="優先度" style="text;html=1;align=center;verticalAlign=middle;whiteSpace=wrap;rounded=0;" parent="1" vertex="1">
                    <mxGeometry x="120" y="600" width="60" height="30" as="geometry"/>
                </mxCell>
                <mxCell id="bu0Hg3FqPW36yZZ3gOAO-25" value="ユーザーは日付を指定して、各筋トレ種目のボリュームを確認できる" style="rounded=0;whiteSpace=wrap;html=1;" parent="1" vertex="1">
                    <mxGeometry x="1020" y="710" width="120" height="60" as="geometry"/>
                </mxCell>
                <mxCell id="bu0Hg3FqPW36yZZ3gOAO-26" value="ユーザーは日付を指定して、部位ごとのボリュームを確認できる" style="rounded=0;whiteSpace=wrap;html=1;" parent="1" vertex="1">
                    <mxGeometry x="1020" y="790" width="120" height="60" as="geometry"/>
                </mxCell>
                <mxCell id="bu0Hg3FqPW36yZZ3gOAO-28" value="" style="endArrow=classic;html=1;rounded=0;" parent="1" edge="1">
                    <mxGeometry width="50" height="50" relative="1" as="geometry">
                        <mxPoint x="180" y="980" as="sourcePoint"/>
                        <mxPoint x="180" y="310" as="targetPoint"/>
                    </mxGeometry>
                </mxCell>
                <mxCell id="bu0Hg3FqPW36yZZ3gOAO-29" value="ユーザーはドロップセットを記録できる" style="rounded=0;whiteSpace=wrap;html=1;" parent="1" vertex="1">
                    <mxGeometry x="414" y="710" width="120" height="60" as="geometry"/>
                </mxCell>
                <mxCell id="bu0Hg3FqPW36yZZ3gOAO-30" value="ユーザーはカウンタボタンでの入力で記録できる" style="rounded=0;whiteSpace=wrap;html=1;" parent="1" vertex="1">
                    <mxGeometry x="414" y="790" width="120" height="60" as="geometry"/>
                </mxCell>
                <mxCell id="2" value="ユーザーはカウンタボタンでの入力で記録できる" style="rounded=0;whiteSpace=wrap;html=1;" vertex="1" parent="1">
                    <mxGeometry x="414" y="870" width="120" height="60" as="geometry"/>
                </mxCell>
                <mxCell id="5" value="ユーザーは記録した種目を削除できる" style="rounded=0;whiteSpace=wrap;html=1;" vertex="1" parent="1">
                    <mxGeometry x="1320" y="630" width="120" height="60" as="geometry"/>
                </mxCell>
                <mxCell id="6" value="ユーザーはほかのユーザーが登録した種目を記録できる" style="rounded=0;whiteSpace=wrap;html=1;" vertex="1" parent="1">
                    <mxGeometry x="414" y="950" width="120" height="60" as="geometry"/>
                </mxCell>
                <mxCell id="7" value="ユーザーは月を指定して挙上重量の伸びをグラフで確認できる" style="rounded=0;whiteSpace=wrap;html=1;" vertex="1" parent="1">
                    <mxGeometry x="1020" y="870" width="120" height="60" as="geometry"/>
                </mxCell>
                <mxCell id="10" value="ユーザーは日付を指定して、種目を更新できる" style="rounded=0;whiteSpace=wrap;html=1;" vertex="1" parent="1">
                    <mxGeometry x="1170" y="630" width="120" height="60" as="geometry"/>
                </mxCell>
                <mxCell id="12" value="ユーザーはインターバル時間を設定できる" style="rounded=1;whiteSpace=wrap;html=1;" vertex="1" parent="1">
                    <mxGeometry x="570" y="430" width="120" height="60" as="geometry"/>
                </mxCell>
                <mxCell id="13" value="ユーザーはインターバルタイマーを使える" style="ellipse;whiteSpace=wrap;html=1;" vertex="1" parent="1">
                    <mxGeometry x="570" y="320" width="120" height="80" as="geometry"/>
                </mxCell>
                <mxCell id="14" value="ユーザーは対応部位を大分類として種目をグループ化できる" style="rounded=0;whiteSpace=wrap;html=1;" vertex="1" parent="1">
                    <mxGeometry x="260" y="630" width="120" height="60" as="geometry"/>
                </mxCell>
                <mxCell id="15" value="ユーザーは種目を部位に関係なくグループ化できる" style="rounded=0;whiteSpace=wrap;html=1;" vertex="1" parent="1">
                    <mxGeometry x="260" y="710" width="120" height="60" as="geometry"/>
                </mxCell>
                <mxCell id="17" value="ユーザーはトレーニングのテンプレートを使える" style="ellipse;whiteSpace=wrap;html=1;" vertex="1" parent="1">
                    <mxGeometry x="870" y="320" width="120" height="80" as="geometry"/>
                </mxCell>
                <mxCell id="18" value="ユーザーはトレーニングのテンプレートを登録できる" style="rounded=1;whiteSpace=wrap;html=1;" vertex="1" parent="1">
                    <mxGeometry x="870" y="430" width="120" height="60" as="geometry"/>
                </mxCell>
                <mxCell id="19" value="ユーザーは種目の各セットのインターバルの時間を設定できる" style="rounded=0;whiteSpace=wrap;html=1;" vertex="1" parent="1">
                    <mxGeometry x="570" y="630" width="120" height="60" as="geometry"/>
                </mxCell>
                <mxCell id="20" value="ユーザーは筋トレの回数を記録した後、インターバルの時間を設定できる" style="rounded=0;whiteSpace=wrap;html=1;" vertex="1" parent="1">
                    <mxGeometry x="570" y="550" width="120" height="60" as="geometry"/>
                </mxCell>
                <mxCell id="21" value="ユーザーは筋トレの回数を記録した後、タイマーを開始できる" style="rounded=0;whiteSpace=wrap;html=1;" vertex="1" parent="1">
                    <mxGeometry x="720" y="550" width="120" height="60" as="geometry"/>
                </mxCell>
                <mxCell id="22" value="ユーザーはインターバル開始後、タイマーを停止できる" style="rounded=0;whiteSpace=wrap;html=1;" vertex="1" parent="1">
                    <mxGeometry x="720" y="630" width="120" height="60" as="geometry"/>
                </mxCell>
                <mxCell id="23" value="ユーザーはインターバル時間に達したことを認識できる" style="rounded=0;whiteSpace=wrap;html=1;" vertex="1" parent="1">
                    <mxGeometry x="720" y="710" width="120" height="60" as="geometry"/>
                </mxCell>
                <mxCell id="24" value="ユーザーはインターバルタイマーを使える" style="rounded=1;whiteSpace=wrap;html=1;" vertex="1" parent="1">
                    <mxGeometry x="720" y="430" width="120" height="60" as="geometry"/>
                </mxCell>
                <mxCell id="26" value="ユーザーは複数の種目をテンプレートとして登録できる" style="rounded=0;whiteSpace=wrap;html=1;" vertex="1" parent="1">
                    <mxGeometry x="870" y="550" width="120" height="60" as="geometry"/>
                </mxCell>
                <mxCell id="27" value="ユーザーは日付選択後、トレーニングテンプレートを記録でき" style="rounded=0;whiteSpace=wrap;html=1;" vertex="1" parent="1">
                    <mxGeometry x="870" y="630" width="120" height="60" as="geometry"/>
                </mxCell>
            </root>
        </mxGraphModel>
    </diagram>
</mxfile>